<svg width="26" height="26" fill="none" xmlns="http://www.w3.org/2000/svg"><g clip-path="url(#clip0_48_369)" fill="#6E5A45"><path d="M25.481 24.142h-.6V11.017l.316.147a.52.52 0 00.738-.47V8.61a.519.519 0 00-.3-.47l-1.785-.833v-3.37a.519.519 0 00-.52-.518h-3.084a.519.519 0 00-.52.518v1.446L10.054.869a.519.519 0 00-.473.018L.265 6.119A.519.519 0 000 6.57v2.083a.519.519 0 00.773.453l.28-.158v15.194H.54a.519.519 0 100 1.037h24.942a.519.519 0 000-1.038zM20.764 5.85V4.456h2.048v2.367l-2.049-.956.001-.018zM1.037 6.874l8.819-4.953 15.042 7.02v.939L10.053 2.952a.518.518 0 00-.473.018L1.037 7.768v-.894zm1.054 17.268V8.367l7.765-4.362 13.988 6.528v13.61H2.091z"/><path d="M11.93 15.329H3.652a.519.519 0 00-.518.518v6.748c0 .286.232.518.518.518h8.278a.519.519 0 00.519-.518v-6.748a.519.519 0 00-.519-.518zm-7.759 1.037h3.101v5.71h-3.1v-5.71zm7.24 5.71H8.31v-5.71h3.101v5.71zm10.893-6.747h-8.3a.519.519 0 00-.518.518v6.748c0 .286.232.518.519.518h8.3a.519.519 0 00.518-.518v-6.748a.519.519 0 00-.519-.518zm-7.78 1.037h3.112v5.71h-3.112v-5.71zm7.261 5.71h-3.112v-5.71h3.113v5.71zm.738-10.901L14.262 7.32a.515.515 0 00-.24-.049.52.52 0 00-.536.519v5.997c0 .287.232.52.519.52h8.3a.519.519 0 00.518-.52v-2.142a.519.519 0 00-.3-.47zm-8-2.588l3.113 1.452v3.23h-3.112V8.587zm7.262 4.682h-3.112v-2.746l3.113 1.453v1.293zM12.447 6.76l-.003-.022a.457.457 0 00-.03-.12.534.534 0 00-.184-.237.492.492 0 00-.07-.041l-.01-.006-1.794-.837a.519.519 0 00-.529.053l-.028.014L3.4 9.16a.519.519 0 00-.265.464v4.164c0 .287.232.52.518.52h8.278a.519.519 0 00.519-.52V6.792l-.002-.031zM4.17 9.916l3.101-1.742v5.096h-3.1V9.915zm4.14 3.354V7.59l1.85-1.04 1.251.583v6.135H8.31z"/></g><defs><clipPath id="clip0_48_369"><path fill="#fff" d="M0 0h26v26H0z"/></clipPath></defs></svg>