<svg width="40" height="40" fill="none" xmlns="http://www.w3.org/2000/svg"><rect x=".5" y=".5" width="39" height="39" rx="2.5" stroke="#fff" stroke-opacity=".5"/><g clip-path="url(#clip0_301_1833)" fill="#fff" fill-opacity=".5"><path d="M13.934 20.734c-.51 1.004.07 1.484 1.393 2.304 1.125.695 2.679.95 3.677 1.051l-3.934 3.784c-1.145 1.098.698 2.859 1.843 1.785l3.097-2.988a609.4 609.4 0 013.098 2.992c1.145 1.078 2.987-.668 1.854-1.784l-3.946-3.785c1.01-.101 2.542-.37 3.653-1.05v-.001c1.323-.824 1.903-1.304 1.4-2.308-.305-.57-1.125-1.046-2.216-.222 0 0-1.475 1.129-3.852 1.129-2.379 0-3.852-1.13-3.852-1.13-1.09-.828-1.914-.347-2.215.223z"/><path d="M20 20.118c2.898 0 5.264-2.265 5.264-5.053 0-2.8-2.366-5.065-5.265-5.065-2.899 0-5.266 2.265-5.266 5.065 0 2.788 2.367 5.053 5.266 5.053zm0-7.552c1.423 0 2.585 1.117 2.585 2.499 0 1.37-1.162 2.487-2.586 2.487s-2.586-1.117-2.586-2.487c0-1.383 1.161-2.5 2.586-2.5z"/></g><defs><clipPath id="clip0_301_1833"><path fill="#fff" d="M10 10h20v20H10z"/></clipPath></defs></svg>