<svg width="40" height="40" fill="none" xmlns="http://www.w3.org/2000/svg"><rect x=".5" y=".5" width="39" height="39" rx="2.5" stroke="#fff" stroke-opacity=".5"/><g clip-path="url(#clip0_301_1841)"><path d="M29.894 24.6a1.37 1.37 0 00-.068-.13c-.347-.625-1.01-1.392-1.989-2.302l-.02-.02-.01-.01-.011-.011h-.01c-.445-.424-.726-.708-.844-.854-.216-.278-.264-.559-.146-.844.083-.215.396-.67.937-1.364.285-.368.51-.663.677-.885 1.201-1.597 1.722-2.617 1.562-3.061l-.062-.104c-.042-.063-.15-.12-.323-.172-.174-.052-.396-.06-.666-.026l-3 .02a.389.389 0 00-.208.006l-.135.031-.052.026-.042.032a.464.464 0 00-.114.109.715.715 0 00-.104.182c-.327.84-.698 1.621-1.114 2.343-.257.43-.493.804-.709 1.12a5.384 5.384 0 01-.541.697c-.146.15-.278.269-.396.36-.118.09-.208.128-.27.114a7.68 7.68 0 01-.178-.042.692.692 0 01-.234-.255 1.141 1.141 0 01-.12-.406 4.447 4.447 0 01-.036-.422 8.705 8.705 0 01.005-.5c.007-.215.01-.36.01-.437 0-.264.006-.55.016-.86l.026-.733c.007-.18.01-.372.01-.573 0-.201-.012-.36-.036-.474a1.62 1.62 0 00-.109-.333.561.561 0 00-.213-.25 1.204 1.204 0 00-.35-.14c-.367-.084-.836-.129-1.405-.136-1.291-.014-2.121.07-2.489.25-.146.076-.278.18-.395.312-.125.153-.143.237-.053.25.417.063.712.212.885.448l.063.125c.049.09.097.25.146.48.048.228.08.481.093.76.035.506.035.94 0 1.3a14.07 14.07 0 01-.099.844 1.688 1.688 0 01-.265.719.18.18 0 01-.052.052.78.78 0 01-.281.052c-.098 0-.216-.049-.354-.146a2.493 2.493 0 01-.432-.4 5.355 5.355 0 01-.506-.714 12.482 12.482 0 01-.583-1.083l-.166-.302a25.817 25.817 0 01-.427-.849c-.18-.371-.34-.73-.48-1.078a.686.686 0 00-.249-.333l-.052-.031a.716.716 0 00-.167-.089 1.105 1.105 0 00-.24-.067l-2.852.02c-.292 0-.49.066-.594.198l-.042.063a.337.337 0 00-.031.166c0 .077.02.17.063.282a34.39 34.39 0 001.358 2.832c.49.91.915 1.642 1.276 2.197.36.555.729 1.08 1.104 1.572.375.493.623.81.744.948.122.139.217.243.287.312l.26.25c.167.167.411.367.734.599.323.233.68.462 1.073.688.392.225.848.409 1.37.551.52.143 1.027.2 1.52.172h1.197c.243-.02.427-.097.552-.229l.041-.052a.687.687 0 00.078-.193c.025-.086.037-.182.037-.286a3.429 3.429 0 01.067-.807c.052-.24.111-.42.178-.541a1.33 1.33 0 01.4-.458.679.679 0 01.084-.037c.166-.055.362-.002.588.162.226.163.438.364.636.604.197.24.435.508.713.807.278.298.52.52.729.666l.208.125c.139.083.32.16.542.23.221.069.416.086.583.051l2.665-.041c.264 0 .469-.044.614-.13.146-.087.233-.183.26-.287a.805.805 0 00.006-.354 1.311 1.311 0 00-.073-.276z" fill="#fff" fill-opacity=".5"/></g><defs><clipPath id="clip0_301_1841"><path fill="#fff" d="M10 10h20v20H10z"/></clipPath></defs></svg>